<svg width="69" height="19" viewBox="0 0 69 19" fill="none" xmlns="http://www.w3.org/2000/svg">
<path d="M8.856 18.384C6.392 18.384 4.464 17.864 3.072 16.824C1.696 15.768 0.992 14.304 0.96 12.432H6C6.032 13.184 6.296 13.768 6.792 14.184C7.288 14.6 7.976 14.808 8.856 14.808C9.768 14.808 10.48 14.648 10.992 14.328C11.52 14.008 11.784 13.568 11.784 13.008C11.784 12.608 11.632 12.304 11.328 12.096C11.024 11.888 10.632 11.744 10.152 11.664C9.688 11.584 9.032 11.504 8.184 11.424C6.712 11.296 5.496 11.112 4.536 10.872C3.576 10.632 2.736 10.128 2.016 9.36C1.312 8.592 0.96 7.456 0.96 5.952C0.96 4.88 1.264 3.96 1.872 3.192C2.496 2.424 3.392 1.84 4.56 1.44C5.744 1.024 7.144 0.816 8.76 0.816C11.224 0.816 13.152 1.376 14.544 2.496C15.936 3.616 16.64 5.176 16.656 7.176H11.616C11.584 6.312 11.304 5.632 10.776 5.136C10.264 4.64 9.56 4.392 8.664 4.392C7.976 4.392 7.416 4.472 6.984 4.632C6.552 4.776 6.24 4.984 6.048 5.256C5.856 5.512 5.76 5.808 5.76 6.144C5.76 6.592 5.944 6.944 6.312 7.2C6.68 7.456 7.144 7.64 7.704 7.752C8.264 7.864 9.032 7.968 10.008 8.064C11.448 8.224 12.616 8.416 13.512 8.64C14.424 8.864 15.2 9.28 15.84 9.888C16.496 10.48 16.824 11.328 16.824 12.432C16.824 14.304 16.12 15.768 14.712 16.824C13.304 17.864 11.352 18.384 8.856 18.384ZM23.2898 11.88L17.5538 1.2H22.6178L25.8098 7.968L29.0258 1.2H34.0898L28.3538 11.88V18H23.2898V11.88ZM35.0381 8.976C35.0381 7.296 35.3581 5.848 35.9981 4.632C36.6541 3.416 37.5821 2.488 38.7821 1.848C39.9821 1.208 41.4221 0.887999 43.1021 0.887999C44.7821 0.887999 46.2221 1.208 47.4221 1.848C48.6381 2.488 49.5661 3.416 50.2061 4.632C50.8621 5.848 51.1901 7.296 51.1901 8.976V18H46.1501V8.976C46.1501 7.872 45.8781 7.008 45.3341 6.384C44.8061 5.76 44.0701 5.448 43.1261 5.448C42.1661 5.448 41.4141 5.76 40.8701 6.384C40.3421 7.008 40.0781 7.872 40.0781 8.976V18H35.0381V8.976ZM61.0284 18.384C58.5324 18.384 56.5884 17.712 55.1964 16.368C53.8044 15.008 53.1084 13.128 53.1084 10.728V8.544C53.1084 6.144 53.8044 4.272 55.1964 2.928C56.5884 1.568 58.5324 0.887999 61.0284 0.887999C63.5404 0.887999 65.4924 1.568 66.8844 2.928C68.2764 4.272 68.9724 6.144 68.9724 8.544H63.9324C63.9324 7.456 63.6764 6.616 63.1644 6.024C62.6524 5.416 61.9404 5.112 61.0284 5.112C60.1324 5.112 59.4284 5.416 58.9164 6.024C58.4044 6.616 58.1484 7.456 58.1484 8.544V10.728C58.1484 11.816 58.4044 12.664 58.9164 13.272C59.4284 13.864 60.1404 14.16 61.0524 14.16C61.9484 14.16 62.6524 13.856 63.1644 13.248C63.6764 12.64 63.9324 11.8 63.9324 10.728H68.9724C68.9724 13.128 68.2764 15.008 66.8844 16.368C65.4924 17.712 63.5404 18.384 61.0284 18.384Z" fill="black"/>
</svg>
